# xmcd
# 
# Track frame offsets:
#     150
#     15673
#     32726
#     45238
#     63977
#     75801
#     89469
#     108204
#     125770
#     140540
#     156842
#     170244
#     184533
#     199227
#     212743
#     231997
# 
# Disc length: 3291
# 
# Revision: 1
# Processed by: cddbd v1.5.2PL0 Copyright (c) Steve Scherf et al.
# Submitted via: fre:ac v1.1beta1pre3
# 
DISCID=d30cd910
DTITLE=Jason McCoy - Jason McCoy 1995 - 2005 Greatest Hits
DYEAR=2005
DGENRE=Country
TTITLE0=Born Again In Dixieland
TTITLE1=This Used To Be Our Town
TTITLE2=She Ain't Missin' Missin' Me
TTITLE3=Still
TTITLE4=I Feel A Sin Comin' On
TTITLE5=Kind Of Like It's Love
TTITLE6=Fix Anything
TTITLE7=I'm Not Running Anymore
TTITLE8=Ten Million Teardrops
TTITLE9=Learnin' A Lot About Love
TTITLE10=Little Bit Of You
TTITLE11=Candle
TTITLE12=Heaven Help Her Heart
TTITLE13=Bury My Heart
TTITLE14=I Lie
TTITLE15=I'm Gonna Make Her Mine
EXTD=
EXTT0=
EXTT1=
EXTT2=
EXTT3=
EXTT4=
EXTT5=
EXTT6=
EXTT7=
EXTT8=
EXTT9=
EXTT10=
EXTT11=
EXTT12=
EXTT13=
EXTT14=
EXTT15=
PLAYORDER=
